<?xml version="1.0" encoding="UTF-8" standalone="no"?>
<svg
    width="540"
    height="540"
    stroke="none"
    stroke-linecap="round"
    stroke-linejoin="round"
    fill="#ffffff"
    fill-rule="evenodd"
    version="1.1"
    id="svg55"
    xmlns="http://www.w3.org/2000/svg"
>
  <style> @media (prefers-color-scheme: dark) { .a { fill: #ffffff } } </style>
  <path
     d="m 308.12061,0.5397 c -6.2667,0.5333 -11.4666,1.2 -11.7333,1.4666 l 20.2667,190.1334 -6.9334,-2.6666 c -9.6,-3.6 -22.5333,-4.6667 -31.2,-2.6667 -13.0667,3.2 -22.6667,16 -22.5333,29.8667 0.007,12.3269 9.8666,24.8 20.4,28.2667 8.1333,2.6666 22.2667,2 28.9333,-1.4667 5.0667,-2.6667 12.9334,-10.5333 18.2667,-18.4 l 3.4667,-4.9333 -1.6,-22.4001 c -2.1334,-29.0666 -12,-131.8667 -15.6,-161.0667 l -0.8,-6.9333 5.0666,-1.7334 c 2.9334,-0.9333 9.0667,-1.7333 13.8667,-1.7333 7.2,0 10.4,0.8 18.6667,4.6667 14,6.6666 26.6667,9.7333 39.3334,9.8666 h 10.6666 l 0.4,-11.4666 0.4,-11.4667 -11.7334,-0.8 c -11.4666,-0.8 -27.0666,-4.2667 -28.3999,-6.1333 -1.6001,-2.2667 -23.2,-9.8667 -30.2667,-10.6667 -4.2667,-0.4 -12.8,-0.4 -18.9334,0.2667 z M 271.78741,281.873 62.493914,137.5 250.32071,308.8063 255.65401,411.4731 262.49391,520 c -30,4 -65,15 -120,20 h 260 c -55,-5 -90,-16 -120,-20 0,-10 1.4268,-23.3269 5.5601,-108.7936 l 4.8,-102.4001 C 347.49391,255 478.96061,137.3667 477.49391,137.5"
     class="a"
     fill="#000000" />
  <path
     d="M 271.46665,276.9398 423.20005,172.1397 326.13995,172 l 3,49 c -2.9333,5.6 -10.7267,15.7269 -20,24 -13.3333,8.9333 -34.7399,5.6731 -45.9399,-6.0603 -7.7334,-8 -10.2667,-15.0666 -9.4667,-26.4 0.4066,-12.5397 11.4066,-25.5397 23.4667,-28.6667 12.9399,-1.873 12.9399,-1.873 21.4667,-1.0666 2.1333,0 6.4,0.9333 9.4666,2 l 5.7333,2 C 313.13995,179 312.13995,173.3333 312.13995,172 l -195.34,0.1397"
     fill="#AA0000" />
</svg>
