<svg version="1" xmlns="http://www.w3.org/2000/svg" width="682.667" height="682.667" viewBox="0 0 512.000000 512.000000"><path d="M282.1 56.3c-4.7.4-8.6.9-8.8 1.1-.6.5 3 34.1 3.6 34.6.6.4 12.1 108 11.6 108 0 0-2.3-.9-5.2-2-7.2-2.7-16.9-3.5-23.4-2-9.8 2.4-17 12-16.9 22.4.2 8.5 7.4 18.6 15.3 21.2 6.1 2 16.7 1.5 21.7-1.1 3.8-2 9.7-7.9 13.7-13.8l2.6-3.7-1.2-16.8c-1.6-21.8-9-98.9-11.7-120.8l-.6-5.2 3.8-1.3c2.2-.7 6.8-1.3 10.4-1.3 5.4 0 7.8.6 14 3.5 10.5 5 20 7.3 29.5 7.4h8l.3-8.6.3-8.6-8.8-.6c-8.6-.6-20.3-3.2-21.3-4.6-1.2-1.7-17.4-7.4-22.7-8-3.2-.3-9.6-.3-14.2.2z"/><path d="M409.8 161.5c-2.6 1.9-5 3.5-5.4 3.5-1 0-37.7 25.3-39.3 27.2-.8 1-1.9 1.8-2.4 1.8s-10 6.3-21.2 14-20.7 14-21 14c-.9 0-16.7 11-18 12.5-1 1.1-12.3 8.9-37.2 25.4l-11.2 7.4-12.8-8.3c-16.9-10.9-34.5-23-35.8-24.5-1.1-1.2-52.4-35.7-57.8-38.8-1.8-1-3.6-2.4-4.2-3.1-1.1-1.3-36.2-25.6-37.1-25.6-.3 0-3.3-1.9-6.7-4.2-7.6-5.1-5.1-1.9 4.8 6 8.8 7.1 21.7 18.6 30.9 27.6 3.9 3.8 8.7 8 10.6 9.5 5.6 4.1 25.5 21.8 35.9 31.8 5.3 5.1 10 9.3 10.5 9.3 1 0 25.1 21.3 31.6 27.9 2.5 2.5 6.7 6.4 9.3 8.6l4.7 4 4 77c2.1 42.3 3.8 77.1 3.6 77.3-.2.2-7.8 1.5-16.7 2.9-9 1.4-16.6 2.9-16.9 3.3-.3.4-14 2.8-30.5 5.4-16.5 2.6-30.4 4.9-31 5.1-.5.2 45.6.3 102.5.3h103.5l-30.5-5.1c-16.8-2.8-30.7-5.3-31-5.7-.3-.4-7.1-1.7-15.1-3-8-1.2-15.2-2.6-16-3-1.1-.7-.7-13.6 2.4-77.7l3.6-76.8 4.3-3.8c2.4-2.1 6.6-6 9.3-8.6 7.5-7.2 31.1-27.9 38.8-34 3.7-3 6.7-5.7 6.7-6.1 0-.9 32.7-30 33.7-30 .5 0 4.7-3.7 9.3-8.2 11.3-11 26-24.1 34.7-31.1 6.2-4.9 9.2-7.8 8.1-7.7-.2 0-2.4 1.6-5 3.5z"/><path d="M143.3 188.1c2.6 1.7 4.7 3.5 4.7 4s.4.9.9.9 9.8 6.1 20.7 13.6c10.8 7.5 20.6 14.2 21.8 14.8 4.2 2.2 18.1 11.9 19.6 13.6 1.5 1.7 23.4 17 24.3 17 .3 0 4.5 2.7 9.3 6 4.9 3.3 9.3 5.9 9.9 5.6.7-.2 5.7-3.6 11.3-7.5 5.6-3.9 10.4-7.1 10.7-7.1.9 0 19.9-13.3 20.3-14.2.4-.9 21.8-15.8 22.7-15.8 1 0 36.9-25.2 39.4-27.7 1.3-1.2 2.8-2.3 3.3-2.3.6 0 2.1-.9 3.5-2l2.6-2h-71.4l.1 18.4c.1 14.6-.2 19-1.3 21.3-2.2 4.2-9.1 12.2-12.4 14.4-10 6.7-26.6 4.8-35-4-5.8-6-7.7-11.3-7.1-19.8.9-12.2 6.4-18.9 17.6-21.5 2.9-.7 5.2-1.6 5.2-2 0-.5 1.8-.8 4-.8s4 .4 4 1c0 .5 1.3 1 2.9 1 1.6 0 4.8.7 7.1 1.5l4.3 1.5-.7-3.7c-.3-2.1-.6-4.6-.6-5.6 0-1.6-4.2-1.7-73.2-1.7h-73.3l4.8 3.1z"/></svg>